<svg width="50" height="50" viewBox="0 0 50 50" fill="none" xmlns="http://www.w3.org/2000/svg">
<g clip-path="url(#clip0_2430_136)">
<path d="M50 0H0V50H50V0Z" fill="black"/>
<path d="M18.2292 46.8749C22.2541 46.8749 25.5209 43.6081 25.5209 39.5831V32.2915H18.2292C14.2042 32.2915 10.9375 35.5581 10.9375 39.5831C10.9375 43.6081 14.2042 46.8749 18.2292 46.8749Z" fill="#0ACF83"/>
<path d="M10.9375 25.0001C10.9375 20.9751 14.2042 17.7085 18.2292 17.7085H25.5209V32.2919H18.2292C14.2042 32.2919 10.9375 29.0251 10.9375 25.0001Z" fill="#A259FF"/>
<path d="M10.9375 10.4167C10.9375 6.39166 14.2042 3.125 18.2292 3.125H25.5209V17.7083H18.2292C14.2042 17.7083 10.9375 14.4417 10.9375 10.4167Z" fill="#F24E1E"/>
<path d="M25.521 3.125H32.8126C36.8376 3.125 40.1042 6.39166 40.1042 10.4167C40.1042 14.4417 36.8376 17.7083 32.8126 17.7083H25.521V3.125Z" fill="#FF7262"/>
<path d="M40.1042 25.0001C40.1042 29.0251 36.8376 32.2919 32.8126 32.2919C28.7876 32.2919 25.521 29.0251 25.521 25.0001C25.521 20.9751 28.7876 17.7085 32.8126 17.7085C36.8376 17.7085 40.1042 20.9751 40.1042 25.0001Z" fill="#1ABCFE"/>
</g>
<defs>
<clipPath id="clip0_2430_136">
<rect width="50" height="50" fill="white"/>
</clipPath>
</defs>
</svg>
