<svg width="256" height="256" viewBox="0 0 256 256" fill="none" xmlns="http://www.w3.org/2000/svg">
<path d="M44.8148 149.995C36.4348 149.995 28.8442 147.93 22.0431 143.801C15.2419 139.55 9.8374 133.781 5.82957 126.494C1.94319 119.086 0 110.585 0 100.99C0 91.2741 1.94319 82.7119 5.82957 75.3035C9.8374 67.8951 15.2419 62.1263 22.0431 57.997C28.8442 53.7463 36.4348 51.6209 44.8148 51.6209C51.8589 51.6209 58.1135 53.0783 63.5787 55.9931C69.0439 58.9079 73.5376 62.6121 77.0596 67.1057C80.5816 71.4779 82.9499 76.0929 84.1644 80.9509V121.029C82.9499 125.766 80.5816 130.381 77.0596 134.874C73.5376 139.247 69.0439 142.89 63.5787 145.805C58.1135 148.598 51.8589 149.995 44.8148 149.995ZM49.187 128.134C54.1664 128.134 58.4779 126.98 62.1213 124.673C65.7648 122.365 68.6189 119.147 70.6835 115.017C72.7481 110.888 73.7805 106.152 73.7805 100.808C73.7805 95.3426 72.7481 90.6061 70.6835 86.5983C68.6189 82.469 65.7648 79.2506 62.1213 76.9431C58.4779 74.6355 54.1664 73.4818 49.187 73.4818C44.329 73.4818 40.0176 74.6355 36.2526 76.9431C32.6091 79.2506 29.7551 82.469 27.6904 86.5983C25.6258 90.6061 24.5935 95.3426 24.5935 100.808C24.5935 106.152 25.6258 110.888 27.6904 115.017C29.7551 119.147 32.6091 122.365 36.2526 124.673C40.0176 126.98 44.329 128.134 49.187 128.134ZM74.8735 147.08V121.394L80.3387 100.808L73.0518 80.2222V15.9148L97.0987 13L97.6453 14.4574V147.08H74.8735Z" fill="white"/>
<path d="M102.153 147.08V54.5357H126.746V147.08H102.153ZM114.54 42.8765C110.411 42.8765 106.889 41.4191 103.974 38.5044C101.06 35.5896 99.6022 32.0676 99.6022 27.9383C99.6022 23.9304 101.06 20.4691 103.974 17.5544C106.889 14.6396 110.411 13.1822 114.54 13.1822C118.548 13.1822 122.01 14.6396 124.924 17.5544C127.839 20.4691 129.297 23.9304 129.297 27.9383C129.297 32.0676 127.839 35.5896 124.924 38.5044C122.01 41.4191 118.548 42.8765 114.54 42.8765Z" fill="white"/>
<path d="M174.819 149.995C165.103 149.995 156.541 147.93 149.132 143.801C141.845 139.672 136.137 133.903 132.008 126.494C127.879 119.086 125.814 110.524 125.814 100.808C125.814 91.0919 127.818 82.5297 131.826 75.1213C135.955 67.7129 141.602 61.9441 148.768 57.8148C155.933 53.6855 164.253 51.6209 173.726 51.6209C183.077 51.6209 191.214 53.7463 198.137 57.997C205.06 62.2477 210.464 68.1987 214.35 75.85C218.237 83.5013 220.18 92.4279 220.18 102.63V107.002L217.447 109.734H136.744V90.2418H210.16L196.497 95.1605C196.497 90.6669 195.465 86.7197 193.4 83.3192C191.457 79.9186 188.785 77.3074 185.385 75.4857C182.106 73.5425 178.401 72.5709 174.272 72.5709C169.657 72.5709 165.528 73.6032 161.884 75.6679C158.241 77.611 155.387 80.3437 153.322 83.8657C151.379 87.2663 150.407 91.2134 150.407 95.707V105.362C150.407 109.613 151.5 113.56 153.687 117.204C155.994 120.726 158.97 123.58 162.613 125.766C166.378 127.952 170.447 129.045 174.819 129.045C178.705 129.045 182.47 127.891 186.113 125.584C189.757 123.276 192.611 120.179 194.676 116.293H196.862L216.537 124.49C212.772 132.749 207.246 139.064 199.959 143.437C192.793 147.809 184.413 149.995 174.819 149.995Z" fill="white"/>
<path d="M4.55435 239.398V146.854H27.3261V168.897L21.3144 170.172C24.2291 162.885 28.662 157.177 34.6131 153.047C40.5641 148.918 47.426 146.854 55.1987 146.854H63.7609V168.532H51.5552C46.9402 168.532 42.9323 169.504 39.5318 171.447C36.2526 173.39 33.7022 176.244 31.8804 180.009C30.0587 183.653 29.1478 188.025 29.1478 193.126V239.398H4.55435Z" fill="white"/>
<path d="M146.222 146.854V239.398H123.45V217.355L129.462 216.08C127.397 221.545 124.482 226.221 120.717 230.107C117.074 233.993 112.823 237.03 107.965 239.216C103.229 241.28 97.9456 242.313 92.116 242.313C85.6792 242.313 79.7282 240.916 74.2629 238.123C68.7977 235.208 64.4255 230.957 61.1464 225.371C57.9887 219.662 56.4099 212.679 56.4099 204.421V146.854H81.0034V196.587C81.0034 201.688 81.6713 206.06 83.0073 209.704C84.4647 213.226 86.5293 215.898 89.2012 217.719C91.8731 219.541 95.0915 220.452 98.8564 220.452C101.771 220.452 104.99 219.662 108.512 218.084C112.155 216.505 115.252 213.651 117.803 209.521C120.353 205.392 121.628 199.502 121.628 191.851V146.854H146.222Z" fill="white"/>
<path d="M166.698 224.824V191.851L208.416 146.854H239.203V148.311L166.698 224.824ZM150.849 239.398V108.233L174.896 105.318L175.442 106.775V239.398H150.849ZM212.241 239.398L181.636 193.854L199.125 178.552L239.75 237.941V239.398H212.241Z" fill="white"/>
<path d="M228.856 239.398V146.854H253.45V239.398H228.856ZM241.244 135.194C237.115 135.194 233.593 133.737 230.678 130.822C227.763 127.907 226.306 124.385 226.306 120.256C226.306 116.248 227.763 112.787 230.678 109.872C233.593 106.957 237.115 105.5 241.244 105.5C245.252 105.5 248.713 106.957 251.628 109.872C254.543 112.787 256 116.248 256 120.256C256 124.385 254.543 127.907 251.628 130.822C248.713 133.737 245.252 135.194 241.244 135.194Z" fill="white"/>
</svg>
