<svg width="203" height="60" viewBox="0 0 203 60" fill="none" xmlns="http://www.w3.org/2000/svg">
<path d="M34.0633 37.0311H38.4476V55.513H28.5996V46.4744H9.84799V55.513H0V37.0311H4.18202C5.86832 34.4005 6.8801 31.1628 6.8801 25.3619V12.7484H34.0633V37.0311ZM14.772 37.0311H24.2153V21.787H16.7281V25.3619C16.7281 30.2859 16.0536 33.9958 14.772 37.0311Z" fill="white"/>
<path d="M55.8555 12.7484H65.9733V46.4744H55.8555V43.3042C53.6296 45.8673 50.3244 47.4187 45.8052 47.4187C36.969 47.4187 29.6841 39.6618 29.6841 29.6114C29.6841 19.5611 36.969 11.8041 45.8052 11.8041C50.3244 11.8041 53.6296 13.3555 55.8555 15.9187V12.7484ZM47.8287 37.8406C52.4829 37.8406 55.8555 34.6703 55.8555 29.6114C55.8555 24.5525 52.4829 21.3823 47.8287 21.3823C43.1745 21.3823 39.8019 24.5525 39.8019 29.6114C39.8019 34.6703 43.1745 37.8406 47.8287 37.8406Z" fill="white"/>
<path d="M68.3373 8.76876V0H88.5729V8.76876H68.3373ZM86.8866 12.7484H94.3063V46.4744H84.4583V29.6114L70.0236 46.4744H62.6039V12.7484H72.4519V29.6114L86.8866 12.7484Z" fill="white"/>
<path d="M111.107 11.8041C119.943 11.8041 127.228 19.5611 127.228 29.6114C127.228 39.6618 119.943 47.4187 111.107 47.4187C106.588 47.4187 103.283 45.8673 101.057 43.3042V59.9648H90.939V12.7484H101.057V15.9187C103.283 13.3555 106.588 11.8041 111.107 11.8041ZM109.084 37.8406C113.738 37.8406 117.11 34.6703 117.11 29.6114C117.11 24.5525 113.738 21.3823 109.084 21.3823C104.429 21.3823 101.057 24.5525 101.057 29.6114C101.057 34.6703 104.429 37.8406 109.084 37.8406Z" fill="white"/>
<path d="M142.102 12.7484H152.895L141.36 45.4626C137.583 56.1875 130.905 60.437 122.137 59.9648V50.5215C126.656 50.5215 128.814 49.4423 130.366 45.8673L117.145 12.7484H127.937L135.762 33.4562L142.102 12.7484Z" fill="white"/>
<path d="M178.208 46.4744H166.741L155.948 31.5675V46.4744H145.831V12.7484H155.948V27.5204L166.066 12.7484H177.87L165.594 29.6114L178.208 46.4744Z" fill="white"/>
<path d="M195.418 12.7484H202.838V46.4744H192.99V29.6114L178.555 46.4744H171.136V12.7484H180.984V29.6114L195.418 12.7484Z" fill="white"/>
</svg>
