<svg width="256" height="256" viewBox="0 0 256 256" fill="none" xmlns="http://www.w3.org/2000/svg">
<path d="M241.666 179.2V59.7334L138.2 0V45.8666L178.734 69.3334C180.334 70.4 180.334 72.5334 178.734 73.0666L130.734 100.8C129.134 101.866 127.534 101.334 126.466 100.8L78.4666 73.0666C76.8666 72.5334 76.8666 69.8666 78.4666 69.3334L119 45.8666V0L15 59.7334V179.2V178.666V179.2L54.4666 156.266V109.334C54.4666 107.734 56.6 106.666 57.6666 107.2L105.666 134.934C107.266 136 107.8 137.066 107.8 138.666V194.134C107.8 195.734 105.666 196.8 104.6 196.266L64.0666 172.8L24.6 195.734L128.066 256L231.534 196.266L192.066 173.334L151.534 196.8C149.934 197.866 148.334 196.8 148.334 194.666V139.2C148.334 137.6 149.4 136 150.466 135.466L198.466 107.734C200.066 106.666 201.666 107.734 201.666 109.866V156.8L241.666 179.2Z" fill="#4C4C4C"/>
<path d="M128.066 256L231.534 196.266L192.066 173.334L151.534 196.8C149.934 197.866 148.334 196.8 148.334 194.666V139.2C148.334 137.6 149.4 136 150.466 135.466L198.466 107.734C200.066 106.666 201.666 107.734 201.666 109.866V156.8L241.134 179.734V59.7334L128.066 125.334V256Z" fill="black"/>
<path d="M138.2 0V45.8666L178.734 69.3334C180.334 70.4 180.334 72.5334 178.734 73.0666L130.734 100.8C129.134 101.866 127.534 101.334 126.466 100.8L78.4666 73.0666C76.8666 72.5334 76.8666 69.8666 78.4666 69.3334L119 45.8666V0L15 59.7334L128.066 125.334L241.134 59.7334L138.2 0Z" fill="#808080"/>
<path d="M105.134 196.8L64.6 173.334L25.1334 196.266L128.6 256V125.334L15 59.7334V179.2V178.666V179.2L54.4666 156.266V109.334C54.4666 107.734 56.6 106.666 57.6666 107.2L105.666 134.934C107.266 136 107.8 137.066 107.8 138.666V194.134C108.334 196.266 106.734 197.866 105.134 196.8Z" fill="#4C4C4C"/>
</svg>
