<svg width="256" height="256" viewBox="0 0 256 256" fill="none" xmlns="http://www.w3.org/2000/svg">
<rect width="256" height="256" fill="#1E1E1E"/>
<path d="M93.3333 240C113.941 240 130.667 223.274 130.667 202.666V165.333H93.3333C72.7253 165.333 56 182.058 56 202.666C56 223.274 72.7253 240 93.3333 240Z" fill="#0ACF83"/>
<path d="M56 128C56 107.392 72.7253 90.667 93.3333 90.667H130.667V165.334H93.3333C72.7253 165.334 56 148.608 56 128Z" fill="#A259FF"/>
<path d="M56 53.3333C56 32.7253 72.7253 16 93.3333 16H130.667V90.6667H93.3333C72.7253 90.6667 56 73.9413 56 53.3333Z" fill="#F24E1E"/>
<path d="M130.667 16H168C188.608 16 205.333 32.7253 205.333 53.3333C205.333 73.9413 188.608 90.6667 168 90.6667H130.667V16Z" fill="#FF7262"/>
<path d="M205.333 128C205.333 148.608 188.608 165.334 168 165.334C147.392 165.334 130.667 148.608 130.667 128C130.667 107.392 147.392 90.667 168 90.667C188.608 90.667 205.333 107.392 205.333 128Z" fill="#1ABCFE"/>
</svg>
