<svg width="50" height="50" viewBox="0 0 50 50" fill="none" xmlns="http://www.w3.org/2000/svg">
<path d="M50 50H0V0H50V50ZM35.8125 17.1455C34.4792 17.1455 33.3122 17.3128 32.333 17.792C31.3541 18.2711 30.4999 18.9374 29.8125 19.7705C29.1042 20.6246 28.5833 21.5834 28.25 22.625C27.8958 23.7083 27.7295 24.8125 27.7295 25.9375C27.7295 26.9792 27.8743 28.0003 28.166 28.9795C28.4577 29.9795 28.9378 30.8955 29.6045 31.708C30.3127 32.562 31.2079 33.25 32.2285 33.6875C33.3117 34.1666 34.6454 34.4169 36.2285 34.417C37.2285 34.4378 38.2083 34.3545 39.1875 34.167C39.9165 34.042 40.6039 33.8336 41.2705 33.542C41.333 33.5003 41.3753 33.458 41.417 33.3955C41.4378 33.3124 41.458 33.2287 41.458 33.1455V29.958C41.4579 29.7501 41.3951 29.7087 41.291 29.792C40.7079 30.021 40.0831 30.1872 39.4375 30.2705C38.7292 30.4163 37.9997 30.4792 37.2705 30.5C36.3541 30.5208 35.4376 30.3335 34.6045 29.9795C33.9795 29.7295 33.458 29.292 33.083 28.7295C32.7288 28.167 32.5208 27.5208 32.4375 26.875H39.041C39.5827 26.875 40.0833 26.958 40.5625 26.958C41.0415 26.958 41.4372 26.9372 41.7705 26.8955C42.1037 26.8747 42.333 26.8545 42.458 26.8545C42.6038 26.8545 42.7292 26.7288 42.75 26.583C42.7708 26.3955 42.7914 26.1035 42.833 25.708C42.8538 25.3123 42.875 24.8748 42.875 24.375C42.875 23.5209 42.7493 22.6663 42.4785 21.833C42.2077 20.9582 41.7701 20.1662 41.2285 19.458C40.6452 18.7291 39.895 18.1669 39.041 17.792C38.0203 17.3338 36.9165 17.1247 35.8125 17.1455ZM13.417 12.167C13.3129 12.1878 13.2293 12.2914 13.25 12.3955C13.25 12.8538 13.2083 13.3125 13.125 13.75C13.0417 13.9998 12.9795 14.1873 12.917 14.3955L6.20801 33.625C6.14561 33.8748 6.20844 34 6.4375 34H10.3545C10.5419 34.0207 10.7084 33.8954 10.75 33.708L12.333 28.792H20.083L21.792 33.792C21.8339 33.9375 21.9793 34.0413 22.125 34.0205H26.4795C26.6876 34.0204 26.7499 33.9165 26.6875 33.6875L19.083 12.333C19.0621 12.229 18.9582 12.167 18.8125 12.167H13.417ZM16.625 17.583C16.7917 18.1872 16.9792 18.7917 17.1875 19.4375C17.3958 20.0833 17.5837 20.7087 17.792 21.3545C17.9794 21.9793 18.1671 22.5832 18.3545 23.1455C18.542 23.6871 18.708 24.2081 18.833 24.6455H13.542C13.8545 23.7706 14.1872 22.7909 14.458 21.7285C14.7913 20.687 15.1045 19.6454 15.417 18.6455C15.7086 17.7498 15.9375 16.8538 16.125 15.958H16.167C16.3128 16.458 16.4584 16.9997 16.625 17.583ZM35.666 20.75C36.8952 20.7083 38 21.5003 38.375 22.667C38.4583 22.9169 38.5 23.1668 38.5 23.4375V23.6455C38.3542 23.7497 38.1872 23.7917 38.0205 23.8125C37.7705 23.8333 37.3746 23.833 36.833 23.833H32.4375C32.5 23.3123 32.6456 22.812 32.8955 22.333C33.4371 21.2917 34.5205 20.6877 35.666 20.75Z" fill="black"/>
</svg>
