<svg width="50" height="50" viewBox="0 0 50 50" fill="none" xmlns="http://www.w3.org/2000/svg">
<path d="M50 50H0V26.2695C2.35059 26.4935 3.78965 28.2361 4.64062 30.9932C5.48902 33.7416 5.60615 37.1125 5.51562 39.7148C5.42119 42.4237 7.53193 44.9218 10.3848 44.9219H39.6191C42.4718 44.9216 44.5826 42.4236 44.4883 39.7148C44.3977 37.1125 44.515 33.7417 45.3633 30.9932C46.2144 28.2361 47.6495 26.4935 50 26.2695V50ZM50 23.7305C47.6495 23.5065 46.2144 21.7639 45.3633 19.0068C44.5149 16.2583 44.3977 12.8874 44.4883 10.2852C44.5826 7.57633 42.4718 5.07841 39.6191 5.07812H10.3848C7.53194 5.07824 5.42129 7.57624 5.51562 10.2852C5.60625 12.8874 5.48903 16.2583 4.64062 19.0068C3.78965 21.7639 2.35049 23.5065 0 23.7305V0H50V23.7305Z" fill="black"/>
<g filter="url(#filter0_d_2458_240)">
<path d="M26.0842 35.5913C30.703 35.5913 33.4863 33.3298 33.4863 29.5996C33.4863 26.78 31.5004 24.7387 28.5516 24.4155V24.298C30.7181 23.9456 32.4182 21.9337 32.4182 19.6868C32.4182 16.4854 29.8906 14.3999 26.0391 14.3999H17.373V35.5913H26.0842ZM20.7432 17.0874H25.2267C27.664 17.0874 29.048 18.1741 29.048 20.142C29.048 22.2421 27.4383 23.4169 24.5195 23.4169H20.7432V17.0874ZM20.7432 32.9039V25.9282H25.1965C28.386 25.9282 30.041 27.103 30.041 29.394C30.041 31.685 28.4312 32.9039 25.3921 32.9039H20.7432Z" fill="black"/>
<path d="M26.0842 35.5913C30.703 35.5913 33.4863 33.3298 33.4863 29.5996C33.4863 26.78 31.5004 24.7387 28.5516 24.4155V24.298C30.7181 23.9456 32.4182 21.9337 32.4182 19.6868C32.4182 16.4854 29.8906 14.3999 26.0391 14.3999H17.373V35.5913H26.0842ZM20.7432 17.0874H25.2267C27.664 17.0874 29.048 18.1741 29.048 20.142C29.048 22.2421 27.4383 23.4169 24.5195 23.4169H20.7432V17.0874ZM20.7432 32.9039V25.9282H25.1965C28.386 25.9282 30.041 27.103 30.041 29.394C30.041 31.685 28.4312 32.9039 25.3921 32.9039H20.7432Z" stroke="black" stroke-width="0.0976562"/>
</g>
<defs>
<filter id="filter0_d_2458_240" x="15.7617" y="13.1792" width="19.3359" height="24.4141" filterUnits="userSpaceOnUse" color-interpolation-filters="sRGB">
<feFlood flood-opacity="0" result="BackgroundImageFix"/>
<feColorMatrix in="SourceAlpha" type="matrix" values="0 0 0 0 0 0 0 0 0 0 0 0 0 0 0 0 0 0 127 0" result="hardAlpha"/>
<feOffset dy="0.390625"/>
<feGaussianBlur stdDeviation="0.78125"/>
<feColorMatrix type="matrix" values="0 0 0 0 0 0 0 0 0 0 0 0 0 0 0 0 0 0 0.15 0"/>
<feBlend mode="normal" in2="BackgroundImageFix" result="effect1_dropShadow_2458_240"/>
<feBlend mode="normal" in="SourceGraphic" in2="effect1_dropShadow_2458_240" result="shape"/>
</filter>
</defs>
</svg>
