<svg width="50" height="50" viewBox="0 0 50 50" fill="none" xmlns="http://www.w3.org/2000/svg">
<path d="M15.625 6.73828H20.9961V4.49219H17.8711V2.24609H20.9961V0H22.0703V4.39453H25.1953V4.78516H22.0703V6.83594H27.4414V2.34375H24.3164V1.95312H27.4414V0H28.5156V4.39453H31.6406V4.78516H28.5156V6.83594H33.8867V2.34375H30.7617V1.95312H33.8867V0H50V50H24.9785L39.4844 45.9785L42.7119 9.82617H7.28906L10.5127 45.9844L24.9785 50H0V0H15.625V6.73828Z" fill="black"/>
<path d="M36.7222 43.6765L39.48 12.7827H25.0005V46.9262L36.7222 43.6765Z" fill="black"/>
<path d="M14.6792 26.1929L15.0767 30.6274H25.0005V26.1929H14.6792Z" fill="black"/>
<path d="M25.0003 17.2173H24.985H13.8804L14.2835 21.652H25.0003V17.2173Z" fill="black"/>
<path d="M30.4456 30.6276L29.9309 36.379L24.9849 37.714V42.3276L34.0761 39.808L34.1428 39.0588L35.1849 27.3839L35.2931 26.1931L36.0936 17.2173H24.9849V21.652H31.2337L30.8302 26.1931H24.9849V30.6276H30.4456Z" fill="black"/>
<path d="M25.0001 42.3243V37.7104L24.9807 37.7156L20.0418 36.382L19.7261 32.8452H17.3262H15.2744L15.8957 39.8082L24.9797 42.33L25.0001 42.3243Z" fill="black"/>
</svg>
