<svg width="512" height="512" viewBox="0 0 512 512" fill="none" xmlns="http://www.w3.org/2000/svg">
<g clip-path="url(#clip0_6267_6159)">
<path d="M439.734 100.62L406.688 470.819L258.145 512L110.011 470.877L77 100.62H439.734Z" fill="#264DE4"/>
<path d="M378.397 447.246L406.637 130.894H258.367V480.523L378.397 447.246Z" fill="#2965F1"/>
<path d="M152.677 268.217L156.747 313.627H258.367V268.217H152.677Z" fill="#EBEBEB"/>
<path d="M258.367 176.305H258.21H144.499L148.627 221.716H258.367V176.305Z" fill="#EBEBEB"/>
<path d="M258.367 433.399V386.153L258.168 386.206L207.594 372.55L204.361 336.333H179.786H158.776L165.138 407.634L258.158 433.457L258.367 433.399Z" fill="#EBEBEB"/>
<path d="M162.367 0H217.367V23H185.367V46H217.367V69H162.367V0Z" fill="white"/>
<path d="M228.367 0H283.367V20H251.367V24H283.367V70H228.367V49H260.367V45H228.367V0Z" fill="white"/>
<path d="M294.367 0H349.367V20H317.367V24H349.367V70H294.367V49H326.367V45H294.367V0Z" fill="white"/>
<path d="M314.128 313.627L308.857 372.521L258.21 386.191V433.435L351.304 407.634L351.987 399.962L362.658 280.411L363.766 268.217L371.964 176.305H258.21V221.716H322.198L318.066 268.217H258.21V313.627H314.128Z" fill="white"/>
</g>
<defs>
<clipPath id="clip0_6267_6159">
<rect width="512" height="512" fill="white"/>
</clipPath>
</defs>
</svg>
