<svg width="50" height="50" viewBox="0 0 50 50" fill="none" xmlns="http://www.w3.org/2000/svg">
<g clip-path="url(#clip0_2457_145)">
<path d="M50 50H0V0H50V50ZM18.2295 17.709C14.2045 17.709 10.9376 20.975 10.9375 25C10.9375 29.025 14.2045 32.292 18.2295 32.292C14.2045 32.292 10.9376 35.5581 10.9375 39.583C10.9375 43.608 14.2045 46.875 18.2295 46.875C22.2543 46.8748 25.5205 43.6079 25.5205 39.583V17.709H18.2295ZM32.8125 17.709C28.7876 17.709 25.5215 20.9751 25.5215 25C25.5215 29.025 28.7875 32.2919 32.8125 32.292C36.8375 32.292 40.1045 29.025 40.1045 25C40.1044 20.975 36.8375 17.709 32.8125 17.709ZM18.2295 3.125C14.2045 3.125 10.9375 6.39199 10.9375 10.417C10.9377 14.4418 14.2046 17.708 18.2295 17.708H25.5205V3.125H18.2295ZM25.5215 17.708H32.8125C36.8374 17.708 40.1043 14.4418 40.1045 10.417C40.1045 6.39199 36.8375 3.125 32.8125 3.125H25.5215V17.708Z" fill="black"/>
</g>
<defs>
<clipPath id="clip0_2457_145">
<rect width="50" height="50" fill="white"/>
</clipPath>
</defs>
</svg>
