<svg width="50" height="50" viewBox="0 0 50 50" fill="none" xmlns="http://www.w3.org/2000/svg">
<path d="M50 50H0V0H50V50ZM33.3125 18.417C33.1251 18.417 33.0411 18.4999 33.041 18.708V34.75C33.041 34.9582 33.1454 35.0829 33.3535 35.083H37.4375C37.6248 35.0829 37.708 34.9791 37.708 34.75V18.708C37.7079 18.5208 37.6247 18.4171 37.4375 18.417H33.3125ZM17.5625 13.1045C17.4584 13.1253 17.3748 13.2289 17.3955 13.333C17.3955 13.7913 17.3538 14.25 17.2705 14.6875C17.1872 14.9374 17.125 15.1667 17.0625 15.375L10.3535 34.6875C10.2911 34.9373 10.3539 35.0625 10.583 35.0625H14.5C14.6874 35.0832 14.8539 34.9579 14.8955 34.7705L16.4785 29.875H24.2285L25.9375 34.833C25.9792 34.9788 26.1247 35.0833 26.2705 35.0625H30.625C30.8331 35.0624 30.8955 34.9576 30.833 34.7285L23.2285 13.2705C23.2076 13.1665 23.1246 13.1045 22.958 13.1045H17.5625ZM20.7705 18.583C20.9372 19.1872 21.1247 19.7917 21.333 20.4375C21.5413 21.0833 21.7292 21.7087 21.9375 22.3545C22.1249 22.9793 22.3126 23.5832 22.5 24.1455C22.6875 24.6871 22.8535 25.2081 22.9785 25.6455H17.6875C18 24.7706 18.3119 23.7909 18.6035 22.7285C18.9368 21.687 19.25 20.6454 19.5625 19.6455C19.8541 18.7498 20.083 17.8538 20.2705 16.958H20.3125C20.4583 17.458 20.6039 17.9997 20.7705 18.583ZM35.416 11.4375C34.7287 11.4376 34.0624 11.6879 33.5625 12.167C33.0626 12.6461 32.7918 13.3123 32.8125 14.0205C32.7917 14.7288 33.0414 15.4167 33.5205 15.9375C34.0205 16.4167 34.6875 16.6878 35.375 16.667C36.0832 16.7086 36.7914 16.4374 37.2705 15.9375C37.7705 15.4167 38.0208 14.7288 38 14.0205C38.0207 13.3333 37.7706 12.6669 37.3125 12.167C36.8542 11.6878 36.2285 11.4375 35.416 11.4375Z" fill="black"/>
</svg>
