<svg width="50" height="50" viewBox="0 0 50 50" fill="none" xmlns="http://www.w3.org/2000/svg">
<path d="M50 50H0V0H50V50ZM35.7676 18.1924C34.2917 18.1928 33.0617 18.4391 32.0781 18.9307C31.1826 19.3444 30.4257 20.008 29.8984 20.8418C29.4361 21.5992 29.1916 22.4701 29.1934 23.3574C29.1831 24.0959 29.35 24.8265 29.6797 25.4873C30.0606 26.1892 30.6012 26.793 31.2568 27.249C32.1733 27.8839 33.1717 28.3913 34.2246 28.7578C35.2528 29.1378 35.935 29.4622 36.2705 29.7305C36.6059 29.9992 36.7744 30.279 36.7744 30.5693C36.7763 30.7524 36.725 30.9323 36.627 31.0869C36.5287 31.2417 36.3874 31.3651 36.2207 31.4414C35.8516 31.6427 35.2756 31.7432 34.4932 31.7432C33.6675 31.7322 32.8459 31.6255 32.0449 31.4248C31.1361 31.2201 30.2644 30.8746 29.4619 30.4014C29.4366 30.3802 29.405 30.3673 29.3721 30.3643C29.3392 30.3613 29.306 30.3685 29.2773 30.3848C29.248 30.405 29.2247 30.4334 29.21 30.4658C29.1953 30.4982 29.1893 30.534 29.1934 30.5693V34.1914C29.1902 34.2738 29.2114 34.3555 29.2529 34.4268C29.2945 34.498 29.3554 34.5569 29.4287 34.5947C30.1081 34.9054 30.8238 35.1299 31.5586 35.2646C32.4914 35.4526 33.4411 35.5428 34.3926 35.5332C35.8904 35.533 37.1483 35.3094 38.166 34.8623C39.1054 34.4781 39.9145 33.8321 40.4971 33.001C41.0411 32.1823 41.3217 31.2171 41.3018 30.2344C41.3155 29.49 41.1487 28.7527 40.8154 28.0869C40.4191 27.384 39.8542 26.7901 39.1719 26.3594C38.1702 25.7227 37.0943 25.2107 35.9688 24.834C35.464 24.6335 34.9713 24.404 34.4932 24.1465C34.2242 24.0104 33.985 23.8219 33.7891 23.5928C33.6647 23.4409 33.594 23.2518 33.5879 23.0557C33.5881 22.8536 33.6456 22.6554 33.7549 22.4854C33.9165 22.2728 34.1486 22.1245 34.4092 22.0664C34.8187 21.9548 35.2427 21.9045 35.667 21.916C36.4514 21.9189 37.2334 22.0082 37.998 22.1836C38.6921 22.3271 39.3638 22.5648 39.9941 22.8887C40.0389 22.9109 40.0886 22.9219 40.1387 22.9219C40.1887 22.9218 40.2384 22.9109 40.2832 22.8887C40.3161 22.8669 40.3427 22.8361 40.3604 22.8008C40.3779 22.7656 40.3861 22.7258 40.3838 22.6865V19.2988C40.3841 19.214 40.3722 19.1296 40.3496 19.0479C40.3326 19.0036 40.3054 18.9637 40.2705 18.9316C40.2357 18.8998 40.1938 18.8763 40.1484 18.8633C39.5744 18.6191 38.9694 18.4554 38.3506 18.377C37.4959 18.2472 36.632 18.1854 35.7676 18.1924ZM17.9355 13.043C17.3094 13.0432 16.6772 13.0486 16.04 13.0596C15.4031 13.0709 14.7995 13.0827 14.2295 13.0938C13.659 13.1051 13.1274 13.116 12.6357 13.127C12.1437 13.1385 11.8173 13.1436 11.46 13.1436C11.3259 13.1436 11.2588 13.2228 11.2588 13.3789V34.8115C11.2588 34.9906 11.3368 35.0799 11.4932 35.0801H15.4873C15.5282 35.0859 15.5702 35.0824 15.6094 35.0693C15.6486 35.0562 15.6846 35.0341 15.7139 35.0049C15.7431 34.9756 15.7652 34.9396 15.7783 34.9004C15.7914 34.8612 15.7948 34.8192 15.7891 34.7783V28.0859C16.1914 28.0861 16.4932 28.0915 16.6943 28.1025C16.8954 28.1137 17.2422 28.1191 17.7344 28.1191C19.4557 28.1191 21.0211 27.9415 22.4297 27.416C23.7804 26.9347 24.9513 26.05 25.7842 24.8828C26.6114 23.7205 27.0253 22.245 27.0254 20.4561C27.0285 19.5355 26.8694 18.6213 26.5557 17.7559C26.224 16.8665 25.703 16.0592 25.0293 15.3906C24.2345 14.6194 23.2776 14.0355 22.2285 13.6807C21.0655 13.2558 19.6346 13.043 17.9355 13.043ZM18.0693 17.1016C18.9054 17.0752 19.7389 17.2174 20.5186 17.5205C21.1156 17.7581 21.6251 18.1746 21.9775 18.7119C22.3127 19.2676 22.4815 19.908 22.4639 20.5566C22.4638 21.4735 22.2455 22.1891 21.8096 22.7031C21.3572 23.2284 20.7631 23.6122 20.0986 23.8096C19.3241 24.0605 18.5154 24.1896 17.7012 24.1924H16.5938C16.3475 24.1926 16.0793 24.1817 15.7891 24.1592V17.1689C15.9453 17.147 16.2306 17.1297 16.6445 17.1182C17.058 17.107 17.5329 17.1016 18.0693 17.1016Z" fill="black"/>
</svg>
