<svg width="50" height="50" viewBox="0 0 50 50" fill="none" xmlns="http://www.w3.org/2000/svg">
<g clip-path="url(#clip0_2442_515)">
<mask id="mask0_2442_515" style="mask-type:alpha" maskUnits="userSpaceOnUse" x="11" y="12" width="31" height="23">
<path d="M11.2588 33.8115V12.3784C11.2588 12.2222 11.3259 12.1436 11.4601 12.1436C11.8175 12.1436 12.1438 12.1384 12.6359 12.1268C13.1275 12.1159 13.6586 12.1047 14.2291 12.0933C14.7994 12.0823 15.4032 12.0711 16.0405 12.0598C16.6777 12.0488 17.3093 12.0432 17.9355 12.043C19.6346 12.043 21.0657 12.2554 22.2288 12.6803C23.278 13.0352 24.2348 13.6196 25.0296 14.3909C25.7033 15.0595 26.224 15.8663 26.5557 16.7556C26.8695 17.6211 27.0285 18.5351 27.0254 19.4557C27.0254 21.2449 26.6117 22.7208 25.7843 23.8832C24.9515 25.0504 23.7808 25.9342 22.4301 26.4156C21.0213 26.9413 19.4559 27.1195 17.7343 27.1195C17.2421 27.1195 16.8955 27.1139 16.6945 27.1027C16.4932 27.0917 16.1914 27.0861 15.7889 27.086V33.778C15.7948 33.819 15.791 33.8608 15.7779 33.9001C15.7648 33.9394 15.7427 33.9751 15.7134 34.0044C15.6841 34.0337 15.6484 34.0558 15.6091 34.0689C15.5698 34.082 15.528 34.0857 15.487 34.0799H11.4936C11.3369 34.0799 11.2588 33.9908 11.2588 33.8115ZM15.7889 16.1686V23.1592C16.0792 23.1817 16.3475 23.1929 16.5938 23.1927H17.7007C18.5151 23.19 19.3242 23.0609 20.099 22.8099C20.7635 22.6125 21.3573 22.2283 21.8096 21.703C22.2456 21.1889 22.4636 20.4733 22.4637 19.5563C22.4814 18.9075 22.3125 18.2673 21.9772 17.7115C21.6248 17.1742 21.1153 16.7584 20.5182 16.5208C19.7385 16.2178 18.9057 16.0752 18.0697 16.1016C17.533 16.1016 17.0578 16.1071 16.6442 16.1183C16.2302 16.1298 15.9451 16.1466 15.7889 16.1686Z" fill="#31A8FF"/>
<path d="M39.9941 21.8883C39.3638 21.5644 38.6924 21.3274 37.9984 21.1839C37.2337 21.0084 36.4518 20.9184 35.6672 20.9155C35.2428 20.904 34.819 20.9549 34.4094 21.0665C34.1487 21.1246 33.9169 21.2731 33.7553 21.4858C33.646 21.6559 33.5878 21.8538 33.5877 22.056C33.5938 22.2521 33.6645 22.4408 33.7889 22.5926C33.9848 22.8218 34.2242 23.0099 34.4932 23.1461C34.9715 23.4036 35.4642 23.6332 35.9691 23.8337C37.0948 24.2105 38.1704 24.723 39.1723 25.3598C39.8548 25.7906 40.4196 26.3841 40.8159 27.0872C41.1491 27.7529 41.316 28.4895 41.3022 29.2339C41.3223 30.2168 41.0414 31.1823 40.4973 32.0011C39.9147 32.8322 39.1055 33.4784 38.166 33.8626C37.1483 34.3097 35.8905 34.5333 34.3926 34.5335C33.4411 34.5431 32.4912 34.4532 31.5584 34.2651C30.8234 34.1304 30.108 33.905 29.4284 33.5943C29.3551 33.5564 29.2941 33.4985 29.2525 33.4272C29.2109 33.3559 29.1905 33.2742 29.1936 33.1918V29.5693C29.1896 29.5338 29.1953 29.4979 29.2101 29.4654C29.2248 29.4329 29.2482 29.4051 29.2776 29.3848C29.3064 29.3685 29.3395 29.3614 29.3724 29.3644C29.4054 29.3674 29.4366 29.3804 29.462 29.4016C30.2645 29.8748 31.1359 30.2199 32.0447 30.4246C32.8458 30.6254 33.6675 30.7323 34.4932 30.7433C35.2757 30.7433 35.8515 30.6426 36.2206 30.4414C36.3873 30.3651 36.5283 30.2421 36.6265 30.0873C36.7248 29.9325 36.776 29.7526 36.7741 29.5693C36.7741 29.279 36.6064 28.9995 36.271 28.7308C35.9356 28.4624 35.2536 28.1382 34.2249 27.758C33.1717 27.3915 32.1731 26.8837 31.2564 26.2487C30.6008 25.7927 30.0609 25.1896 29.68 24.4877C29.3501 23.8268 29.1834 23.0964 29.1937 22.3578C29.1918 21.4704 29.4356 20.5997 29.898 19.8422C30.4253 19.0081 31.1824 18.3442 32.0783 17.9303C33.062 17.4388 34.2918 17.1928 35.7679 17.1924C36.6323 17.1855 37.4959 17.2472 38.3506 17.3769C38.9695 17.4554 39.5745 17.6191 40.1486 17.8632C40.1942 17.8763 40.236 17.8998 40.271 17.9318C40.3059 17.9638 40.3329 18.0035 40.3498 18.0477C40.3725 18.1296 40.3838 18.2143 40.3834 18.2993V21.687C40.3857 21.7264 40.3777 21.7658 40.36 21.8011C40.3424 21.8364 40.3157 21.8665 40.2828 21.8883C40.238 21.9106 40.1886 21.9222 40.1385 21.9222C40.0884 21.9222 40.039 21.9106 39.9941 21.8883Z" fill="#31A8FF"/>
</mask>
<g mask="url(#mask0_2442_515)">
<path d="M50 7.48266e-05L8.82149e-06 0L0 50H50V7.48266e-05Z" fill="#C8FF00"/>
</g>
</g>
<defs>
<clipPath id="clip0_2442_515">
<rect width="50" height="50" fill="white"/>
</clipPath>
</defs>
</svg>
