<svg width="50" height="50" viewBox="0 0 50 50" fill="none" xmlns="http://www.w3.org/2000/svg">
<path d="M50 50H0V0H50V50ZM12.5 24.7227C5.83333 24.7227 1.66667 28.056 0 34.7227C2.5 31.3893 5.41667 30.1393 8.75 30.9727C10.6517 31.4486 12.0111 32.8277 13.5156 34.3545C15.9666 36.8425 18.8037 39.7227 25 39.7227C31.6665 39.7227 35.8333 36.3891 37.5 29.7227C35.0001 33.0558 32.0832 34.3059 28.75 33.4727C26.8482 32.9977 25.489 31.6167 23.9844 30.0898C21.5334 27.6019 18.6963 24.7227 12.5 24.7227ZM25 9.72266C18.3333 9.72266 14.1667 13.056 12.5 19.7227C15 16.3893 17.9167 15.1393 21.25 15.9727C23.1517 16.4477 24.5111 17.8277 26.0156 19.3545C28.4666 21.8425 31.3037 24.7227 37.5 24.7227C44.1665 24.7227 48.3333 21.3891 50 14.7227C47.5001 18.0558 44.5832 19.3059 41.25 18.4727C39.3482 17.9977 37.989 16.6167 36.4844 15.0898C34.0334 12.6019 31.1963 9.72266 25 9.72266Z" fill="black"/>
</svg>
