<svg width="350" height="200" viewBox="0 0 350 200" fill="none" xmlns="http://www.w3.org/2000/svg">
<rect width="350" height="200" fill="white"/>
<path d="M106.876 86.752V84.268L114.616 80.128V82.612L109.27 85.438V85.582L114.616 88.408V90.892L106.876 86.752ZM117.201 81.712H119.865V83.404H119.991C120.219 82.852 120.549 82.396 120.981 82.036C121.413 81.676 122.001 81.496 122.745 81.496C123.261 81.496 123.729 81.592 124.149 81.784C124.581 81.976 124.947 82.27 125.247 82.666C125.559 83.062 125.799 83.566 125.967 84.178C126.147 84.79 126.237 85.516 126.237 86.356C126.237 87.196 126.147 87.922 125.967 88.534C125.799 89.146 125.559 89.65 125.247 90.046C124.947 90.442 124.581 90.736 124.149 90.928C123.729 91.12 123.261 91.216 122.745 91.216C122.001 91.216 121.413 91.042 120.981 90.694C120.549 90.334 120.219 89.872 119.991 89.308H119.865V94.6H117.201V81.712ZM121.593 89.146C122.193 89.146 122.655 88.966 122.979 88.606C123.303 88.234 123.465 87.724 123.465 87.076V85.636C123.465 84.988 123.303 84.484 122.979 84.124C122.655 83.752 122.193 83.566 121.593 83.566C121.125 83.566 120.717 83.68 120.369 83.908C120.033 84.136 119.865 84.496 119.865 84.988V87.724C119.865 88.216 120.033 88.576 120.369 88.804C120.717 89.032 121.125 89.146 121.593 89.146ZM128.156 88.93H131V79.75H128.156V77.68H133.664V88.93H136.508V91H128.156V88.93ZM146.491 91C145.939 91 145.495 90.862 145.159 90.586C144.823 90.298 144.625 89.89 144.565 89.362H144.475C144.307 89.974 143.971 90.436 143.467 90.748C142.975 91.06 142.369 91.216 141.649 91.216C140.749 91.216 140.023 90.976 139.471 90.496C138.931 90.004 138.661 89.32 138.661 88.444C138.661 87.472 139.015 86.752 139.723 86.284C140.431 85.816 141.469 85.582 142.837 85.582H144.331V85.114C144.331 84.562 144.199 84.148 143.935 83.872C143.683 83.584 143.251 83.44 142.639 83.44C142.075 83.44 141.619 83.548 141.271 83.764C140.923 83.98 140.623 84.262 140.371 84.61L138.913 83.314C139.225 82.786 139.711 82.354 140.371 82.018C141.043 81.67 141.901 81.496 142.945 81.496C144.217 81.496 145.207 81.79 145.915 82.378C146.635 82.954 146.995 83.83 146.995 85.006V89.074H148.021V91H146.491ZM142.657 89.47C143.125 89.47 143.521 89.356 143.845 89.128C144.169 88.9 144.331 88.57 144.331 88.138V87.022H142.909C141.817 87.022 141.271 87.388 141.271 88.12V88.48C141.271 88.804 141.397 89.05 141.649 89.218C141.901 89.386 142.237 89.47 142.657 89.47ZM154.296 91.216C153.564 91.216 152.904 91.108 152.316 90.892C151.74 90.664 151.248 90.34 150.84 89.92C150.444 89.5 150.138 88.99 149.922 88.39C149.706 87.79 149.598 87.112 149.598 86.356C149.598 85.6 149.706 84.922 149.922 84.322C150.138 83.722 150.444 83.212 150.84 82.792C151.248 82.372 151.74 82.054 152.316 81.838C152.904 81.61 153.558 81.496 154.278 81.496C155.298 81.496 156.114 81.706 156.726 82.126C157.35 82.534 157.824 83.08 158.148 83.764L156.096 84.88C155.928 84.52 155.706 84.22 155.43 83.98C155.166 83.74 154.782 83.62 154.278 83.62C153.666 83.62 153.192 83.8 152.856 84.16C152.532 84.508 152.37 84.988 152.37 85.6V87.112C152.37 87.724 152.532 88.21 152.856 88.57C153.192 88.918 153.678 89.092 154.314 89.092C154.83 89.092 155.232 88.972 155.52 88.732C155.82 88.492 156.072 88.18 156.276 87.796L158.292 88.948C157.956 89.632 157.464 90.184 156.816 90.604C156.18 91.012 155.34 91.216 154.296 91.216ZM164.963 91.216C163.403 91.216 162.221 90.784 161.417 89.92C160.613 89.056 160.211 87.88 160.211 86.392C160.211 85.636 160.313 84.958 160.517 84.358C160.733 83.746 161.033 83.23 161.417 82.81C161.813 82.378 162.287 82.054 162.839 81.838C163.403 81.61 164.033 81.496 164.729 81.496C165.425 81.496 166.049 81.61 166.601 81.838C167.153 82.054 167.621 82.366 168.005 82.774C168.389 83.182 168.683 83.68 168.887 84.268C169.103 84.844 169.211 85.492 169.211 86.212V87.004H162.857V87.166C162.857 87.766 163.043 88.252 163.415 88.624C163.787 88.984 164.333 89.164 165.053 89.164C165.605 89.164 166.079 89.062 166.475 88.858C166.871 88.642 167.213 88.36 167.501 88.012L168.941 89.578C168.581 90.022 168.077 90.406 167.429 90.73C166.781 91.054 165.959 91.216 164.963 91.216ZM164.747 83.404C164.171 83.404 163.709 83.584 163.361 83.944C163.025 84.292 162.857 84.766 162.857 85.366V85.51H166.601V85.366C166.601 84.754 166.433 84.274 166.097 83.926C165.773 83.578 165.323 83.404 164.747 83.404ZM171.274 77.68H173.938V83.404H174.046C174.154 83.14 174.286 82.894 174.442 82.666C174.598 82.438 174.784 82.24 175 82.072C175.228 81.892 175.486 81.754 175.774 81.658C176.074 81.55 176.41 81.496 176.782 81.496C177.226 81.496 177.634 81.574 178.006 81.73C178.378 81.874 178.696 82.096 178.96 82.396C179.224 82.696 179.428 83.062 179.572 83.494C179.728 83.926 179.806 84.424 179.806 84.988V91H177.142V85.348C177.142 84.148 176.62 83.548 175.576 83.548C175.372 83.548 175.168 83.578 174.964 83.638C174.772 83.686 174.598 83.77 174.442 83.89C174.286 83.998 174.16 84.136 174.064 84.304C173.98 84.472 173.938 84.67 173.938 84.898V91H171.274V77.68ZM186.296 91.216C185.576 91.216 184.928 91.108 184.352 90.892C183.776 90.664 183.284 90.34 182.876 89.92C182.48 89.5 182.174 88.99 181.958 88.39C181.742 87.79 181.634 87.112 181.634 86.356C181.634 85.6 181.742 84.922 181.958 84.322C182.174 83.722 182.48 83.212 182.876 82.792C183.284 82.372 183.776 82.054 184.352 81.838C184.928 81.61 185.576 81.496 186.296 81.496C187.016 81.496 187.664 81.61 188.24 81.838C188.816 82.054 189.302 82.372 189.698 82.792C190.106 83.212 190.418 83.722 190.634 84.322C190.85 84.922 190.958 85.6 190.958 86.356C190.958 87.112 190.85 87.79 190.634 88.39C190.418 88.99 190.106 89.5 189.698 89.92C189.302 90.34 188.816 90.664 188.24 90.892C187.664 91.108 187.016 91.216 186.296 91.216ZM186.296 89.236C186.896 89.236 187.364 89.05 187.7 88.678C188.036 88.306 188.204 87.778 188.204 87.094V85.618C188.204 84.934 188.036 84.406 187.7 84.034C187.364 83.662 186.896 83.476 186.296 83.476C185.696 83.476 185.228 83.662 184.892 84.034C184.556 84.406 184.388 84.934 184.388 85.618V87.094C184.388 87.778 184.556 88.306 184.892 88.678C185.228 89.05 185.696 89.236 186.296 89.236ZM192.913 88.93H195.757V79.75H192.913V77.68H198.421V88.93H201.265V91H192.913V88.93ZM209.556 89.308H209.43C209.19 89.872 208.854 90.334 208.422 90.694C208.002 91.042 207.42 91.216 206.676 91.216C206.16 91.216 205.686 91.12 205.254 90.928C204.834 90.736 204.468 90.442 204.156 90.046C203.856 89.65 203.616 89.146 203.436 88.534C203.268 87.922 203.184 87.196 203.184 86.356C203.184 85.516 203.268 84.79 203.436 84.178C203.616 83.566 203.856 83.062 204.156 82.666C204.468 82.27 204.834 81.976 205.254 81.784C205.686 81.592 206.16 81.496 206.676 81.496C207.048 81.496 207.378 81.544 207.666 81.64C207.954 81.736 208.206 81.868 208.422 82.036C208.65 82.204 208.842 82.408 208.998 82.648C209.166 82.876 209.31 83.128 209.43 83.404H209.556V77.68H212.22V91H209.556V89.308ZM207.828 89.146C208.296 89.146 208.698 89.032 209.034 88.804C209.382 88.576 209.556 88.216 209.556 87.724V84.988C209.556 84.496 209.382 84.136 209.034 83.908C208.698 83.68 208.296 83.566 207.828 83.566C207.228 83.566 206.766 83.752 206.442 84.124C206.118 84.484 205.956 84.988 205.956 85.636V87.076C205.956 87.724 206.118 88.234 206.442 88.606C206.766 88.966 207.228 89.146 207.828 89.146ZM218.927 91.216C217.367 91.216 216.185 90.784 215.381 89.92C214.577 89.056 214.175 87.88 214.175 86.392C214.175 85.636 214.277 84.958 214.481 84.358C214.697 83.746 214.997 83.23 215.381 82.81C215.777 82.378 216.251 82.054 216.803 81.838C217.367 81.61 217.997 81.496 218.693 81.496C219.389 81.496 220.013 81.61 220.565 81.838C221.117 82.054 221.585 82.366 221.969 82.774C222.353 83.182 222.647 83.68 222.851 84.268C223.067 84.844 223.175 85.492 223.175 86.212V87.004H216.821V87.166C216.821 87.766 217.007 88.252 217.379 88.624C217.751 88.984 218.297 89.164 219.017 89.164C219.569 89.164 220.043 89.062 220.439 88.858C220.835 88.642 221.177 88.36 221.465 88.012L222.905 89.578C222.545 90.022 222.041 90.406 221.393 90.73C220.745 91.054 219.923 91.216 218.927 91.216ZM218.711 83.404C218.135 83.404 217.673 83.584 217.325 83.944C216.989 84.292 216.821 84.766 216.821 85.366V85.51H220.565V85.366C220.565 84.754 220.397 84.274 220.061 83.926C219.737 83.578 219.287 83.404 218.711 83.404ZM225.4 88.93H227.542V83.782H225.4V81.712H230.206V84.34H230.332C230.416 84.004 230.53 83.68 230.674 83.368C230.83 83.044 231.022 82.762 231.25 82.522C231.49 82.27 231.778 82.072 232.114 81.928C232.45 81.784 232.846 81.712 233.302 81.712H234.184V84.16H232.204C231.544 84.16 231.046 84.358 230.71 84.754C230.374 85.138 230.206 85.612 230.206 86.176V88.93H233.266V91H225.4V88.93ZM236.391 88.408L241.737 85.582V85.438L236.391 82.612V80.128L244.131 84.268V86.752L236.391 90.892V88.408Z" fill="#FF1493"/>
<path d="M100.228 123.144C99.2036 123.144 98.4396 122.772 97.9356 122.028C97.4396 121.284 97.1916 120.212 97.1916 118.812C97.1916 117.412 97.4396 116.34 97.9356 115.596C98.4396 114.852 99.2036 114.48 100.228 114.48C100.612 114.48 100.944 114.532 101.224 114.636C101.504 114.74 101.744 114.88 101.944 115.056C102.144 115.232 102.312 115.432 102.448 115.656C102.584 115.872 102.704 116.092 102.808 116.316L101.944 116.712C101.872 116.528 101.788 116.356 101.692 116.196C101.596 116.028 101.48 115.884 101.344 115.764C101.216 115.636 101.06 115.536 100.876 115.464C100.7 115.392 100.484 115.356 100.228 115.356C99.5636 115.356 99.0676 115.608 98.7396 116.112C98.4196 116.616 98.2596 117.288 98.2596 118.128V119.496C98.2596 120.336 98.4196 121.008 98.7396 121.512C99.0676 122.016 99.5636 122.268 100.228 122.268C100.484 122.268 100.7 122.232 100.876 122.16C101.06 122.088 101.216 121.992 101.344 121.872C101.48 121.744 101.596 121.6 101.692 121.44C101.788 121.272 101.872 121.096 101.944 120.912L102.808 121.308C102.704 121.54 102.584 121.764 102.448 121.98C102.312 122.196 102.144 122.392 101.944 122.568C101.744 122.744 101.504 122.884 101.224 122.988C100.944 123.092 100.612 123.144 100.228 123.144ZM104.831 116.808H105.791V119.4H107.111L108.779 116.808H109.775L108.263 119.16C108.127 119.368 108.007 119.516 107.903 119.604C107.799 119.684 107.675 119.744 107.531 119.784V119.832C107.691 119.856 107.827 119.912 107.939 120C108.051 120.08 108.167 120.224 108.287 120.432L109.295 122.184H109.991V123H109.295C109.087 123 108.907 122.944 108.755 122.832C108.603 122.72 108.451 122.536 108.299 122.28L107.111 120.216H105.791V123H104.831V116.808ZM114.342 123.144C113.91 123.144 113.518 123.068 113.166 122.916C112.822 122.764 112.526 122.548 112.278 122.268C112.038 121.98 111.854 121.64 111.726 121.248C111.598 120.848 111.534 120.4 111.534 119.904C111.534 119.416 111.598 118.972 111.726 118.572C111.854 118.172 112.038 117.832 112.278 117.552C112.526 117.264 112.822 117.044 113.166 116.892C113.518 116.74 113.91 116.664 114.342 116.664C114.774 116.664 115.162 116.74 115.506 116.892C115.858 117.044 116.154 117.264 116.394 117.552C116.642 117.832 116.83 118.172 116.958 118.572C117.086 118.972 117.15 119.416 117.15 119.904C117.15 120.4 117.086 120.848 116.958 121.248C116.83 121.64 116.642 121.98 116.394 122.268C116.154 122.548 115.858 122.764 115.506 122.916C115.162 123.068 114.774 123.144 114.342 123.144ZM114.342 122.316C114.878 122.316 115.31 122.156 115.638 121.836C115.966 121.516 116.13 121.02 116.13 120.348V119.46C116.13 118.788 115.966 118.292 115.638 117.972C115.31 117.652 114.878 117.492 114.342 117.492C113.806 117.492 113.374 117.652 113.046 117.972C112.718 118.292 112.554 118.788 112.554 119.46V120.348C112.554 121.02 112.718 121.516 113.046 121.836C113.374 122.156 113.806 122.316 114.342 122.316ZM119.078 116.808H120.038V117.816H120.086C120.486 117.048 121.122 116.664 121.994 116.664C122.754 116.664 123.346 116.948 123.77 117.516C124.202 118.084 124.418 118.88 124.418 119.904C124.418 120.928 124.202 121.724 123.77 122.292C123.346 122.86 122.754 123.144 121.994 123.144C121.122 123.144 120.486 122.76 120.086 121.992H120.038V125.4H119.078V116.808ZM121.622 122.292C122.182 122.292 122.614 122.124 122.918 121.788C123.23 121.444 123.386 120.992 123.386 120.432V119.376C123.386 118.816 123.23 118.368 122.918 118.032C122.614 117.688 122.182 117.516 121.622 117.516C121.406 117.516 121.202 117.544 121.01 117.6C120.818 117.656 120.65 117.74 120.506 117.852C120.362 117.956 120.246 118.088 120.158 118.248C120.078 118.4 120.038 118.58 120.038 118.788V121.02C120.038 121.228 120.078 121.412 120.158 121.572C120.246 121.724 120.362 121.856 120.506 121.968C120.65 122.072 120.818 122.152 121.01 122.208C121.202 122.264 121.406 122.292 121.622 122.292ZM128.733 123.144C128.301 123.144 127.909 123.068 127.557 122.916C127.213 122.764 126.917 122.548 126.669 122.268C126.429 121.98 126.245 121.64 126.117 121.248C125.989 120.848 125.925 120.4 125.925 119.904C125.925 119.416 125.989 118.972 126.117 118.572C126.245 118.172 126.429 117.832 126.669 117.552C126.917 117.264 127.213 117.044 127.557 116.892C127.909 116.74 128.301 116.664 128.733 116.664C129.165 116.664 129.553 116.74 129.897 116.892C130.249 117.044 130.545 117.264 130.785 117.552C131.033 117.832 131.221 118.172 131.349 118.572C131.477 118.972 131.541 119.416 131.541 119.904C131.541 120.4 131.477 120.848 131.349 121.248C131.221 121.64 131.033 121.98 130.785 122.268C130.545 122.548 130.249 122.764 129.897 122.916C129.553 123.068 129.165 123.144 128.733 123.144ZM128.733 122.316C129.269 122.316 129.701 122.156 130.029 121.836C130.357 121.516 130.521 121.02 130.521 120.348V119.46C130.521 118.788 130.357 118.292 130.029 117.972C129.701 117.652 129.269 117.492 128.733 117.492C128.197 117.492 127.765 117.652 127.437 117.972C127.109 118.292 126.945 118.788 126.945 119.46V120.348C126.945 121.02 127.109 121.516 127.437 121.836C127.765 122.156 128.197 122.316 128.733 122.316ZM142.643 117.624H140.363V116.808H145.883V117.624H143.603V123H142.643V117.624ZM152.323 116.808H153.283L150.211 124.356C150.139 124.532 150.059 124.684 149.971 124.812C149.883 124.948 149.779 125.056 149.659 125.136C149.539 125.224 149.395 125.288 149.227 125.328C149.059 125.376 148.859 125.4 148.627 125.4H147.715V124.584H149.155L149.851 122.88L147.355 116.808H148.339L149.383 119.4L150.307 121.752H150.355L151.279 119.4L152.323 116.808ZM157.034 117.624H154.754V116.808H160.274V117.624H157.994V123H157.034V117.624ZM173.225 120.156H173.165C172.941 120.404 172.685 120.592 172.397 120.72C172.117 120.84 171.757 120.9 171.317 120.9C170.645 120.9 170.133 120.744 169.781 120.432C169.437 120.112 169.265 119.632 169.265 118.992V116.808H170.225V118.908C170.225 119.292 170.333 119.576 170.549 119.76C170.765 119.944 171.117 120.036 171.605 120.036C172.085 120.036 172.473 119.976 172.769 119.856C173.073 119.728 173.225 119.536 173.225 119.28V116.808H174.185V123H173.225V120.156ZM178.62 117.624H176.34V116.808H181.86V117.624H179.58V123H178.62V117.624ZM186.295 123.144C185.863 123.144 185.471 123.068 185.119 122.916C184.775 122.764 184.479 122.548 184.231 122.268C183.991 121.98 183.807 121.64 183.679 121.248C183.551 120.848 183.487 120.4 183.487 119.904C183.487 119.416 183.551 118.972 183.679 118.572C183.807 118.172 183.991 117.832 184.231 117.552C184.479 117.264 184.775 117.044 185.119 116.892C185.471 116.74 185.863 116.664 186.295 116.664C186.727 116.664 187.115 116.74 187.459 116.892C187.811 117.044 188.107 117.264 188.347 117.552C188.595 117.832 188.783 118.172 188.911 118.572C189.039 118.972 189.103 119.416 189.103 119.904C189.103 120.4 189.039 120.848 188.911 121.248C188.783 121.64 188.595 121.98 188.347 122.268C188.107 122.548 187.811 122.764 187.459 122.916C187.115 123.068 186.727 123.144 186.295 123.144ZM186.295 122.316C186.831 122.316 187.263 122.156 187.591 121.836C187.919 121.516 188.083 121.02 188.083 120.348V119.46C188.083 118.788 187.919 118.292 187.591 117.972C187.263 117.652 186.831 117.492 186.295 117.492C185.759 117.492 185.327 117.652 184.999 117.972C184.671 118.292 184.507 118.788 184.507 119.46V120.348C184.507 121.02 184.671 121.516 184.999 121.836C185.327 122.156 185.759 122.316 186.295 122.316ZM191.751 119.856V118.848H195.231V119.856H191.751ZM200.206 117.624H197.926V116.808H203.446V117.624H201.166V123H200.206V117.624ZM207.881 123.144C207.449 123.144 207.057 123.068 206.705 122.916C206.361 122.764 206.065 122.548 205.817 122.268C205.577 121.98 205.393 121.64 205.265 121.248C205.137 120.848 205.073 120.4 205.073 119.904C205.073 119.416 205.137 118.972 205.265 118.572C205.393 118.172 205.577 117.832 205.817 117.552C206.065 117.264 206.361 117.044 206.705 116.892C207.057 116.74 207.449 116.664 207.881 116.664C208.313 116.664 208.701 116.74 209.045 116.892C209.397 117.044 209.693 117.264 209.933 117.552C210.181 117.832 210.369 118.172 210.497 118.572C210.625 118.972 210.689 119.416 210.689 119.904C210.689 120.4 210.625 120.848 210.497 121.248C210.369 121.64 210.181 121.98 209.933 122.268C209.693 122.548 209.397 122.764 209.045 122.916C208.701 123.068 208.313 123.144 207.881 123.144ZM207.881 122.316C208.417 122.316 208.849 122.156 209.177 121.836C209.505 121.516 209.669 121.02 209.669 120.348V119.46C209.669 118.788 209.505 118.292 209.177 117.972C208.849 117.652 208.417 117.492 207.881 117.492C207.345 117.492 206.913 117.652 206.585 117.972C206.257 118.292 206.093 118.788 206.093 119.46V120.348C206.093 121.02 206.257 121.516 206.585 121.836C206.913 122.156 207.345 122.316 207.881 122.316ZM222.284 123.144C221.868 123.144 221.488 123.068 221.144 122.916C220.808 122.764 220.516 122.532 220.268 122.22C220.028 121.908 219.84 121.516 219.704 121.044C219.568 120.564 219.5 119.996 219.5 119.34C219.5 118.428 219.56 117.652 219.68 117.012C219.808 116.372 220 115.844 220.256 115.428C220.52 115.012 220.852 114.704 221.252 114.504C221.66 114.304 222.144 114.184 222.704 114.144L224.6 114.024V114.972L222.608 115.104C222.264 115.128 221.968 115.192 221.72 115.296C221.48 115.4 221.276 115.568 221.108 115.8C220.948 116.024 220.82 116.32 220.724 116.688C220.628 117.056 220.556 117.516 220.508 118.068H220.568C220.736 117.668 220.972 117.36 221.276 117.144C221.58 116.92 221.96 116.808 222.416 116.808C222.808 116.808 223.168 116.88 223.496 117.024C223.824 117.168 224.104 117.376 224.336 117.648C224.568 117.912 224.748 118.244 224.876 118.644C225.012 119.036 225.08 119.484 225.08 119.988C225.08 120.46 225.012 120.888 224.876 121.272C224.74 121.656 224.548 121.988 224.3 122.268C224.052 122.548 223.756 122.764 223.412 122.916C223.076 123.068 222.7 123.144 222.284 123.144ZM222.284 122.316C222.804 122.316 223.228 122.156 223.556 121.836C223.892 121.508 224.06 121.032 224.06 120.408V119.652C224.06 118.98 223.896 118.476 223.568 118.14C223.248 117.804 222.828 117.636 222.308 117.636C221.7 117.636 221.248 117.784 220.952 118.08C220.664 118.368 220.52 118.74 220.52 119.196V120.408C220.52 121.032 220.68 121.508 221 121.836C221.328 122.156 221.756 122.316 222.284 122.316ZM231.471 116.808H232.431L229.359 124.356C229.287 124.532 229.207 124.684 229.119 124.812C229.031 124.948 228.927 125.056 228.807 125.136C228.687 125.224 228.543 125.288 228.375 125.328C228.207 125.376 228.007 125.4 227.775 125.4H226.863V124.584H228.303L228.999 122.88L226.503 116.808H227.487L228.531 119.4L229.455 121.752H229.503L230.427 119.4L231.471 116.808ZM233.327 122.184H234.023C234.279 121.776 234.479 121.296 234.623 120.744C234.775 120.184 234.851 119.528 234.851 118.776V116.808H238.847V122.184H239.867V124.68H238.991V123H234.203V124.68H233.327V122.184ZM237.887 122.184V117.624H235.787V118.824C235.787 119.568 235.727 120.208 235.607 120.744C235.487 121.272 235.307 121.752 235.067 122.184H237.887ZM243.966 123.144C243.518 123.144 243.114 123.068 242.754 122.916C242.402 122.764 242.098 122.548 241.842 122.268C241.594 121.98 241.402 121.64 241.266 121.248C241.13 120.848 241.062 120.404 241.062 119.916C241.062 119.42 241.13 118.972 241.266 118.572C241.41 118.172 241.606 117.832 241.854 117.552C242.102 117.264 242.398 117.044 242.742 116.892C243.094 116.74 243.482 116.664 243.906 116.664C244.322 116.664 244.698 116.74 245.034 116.892C245.378 117.044 245.67 117.256 245.91 117.528C246.15 117.792 246.334 118.108 246.462 118.476C246.59 118.844 246.654 119.248 246.654 119.688V120.144H242.07V120.432C242.07 120.704 242.114 120.956 242.202 121.188C242.29 121.42 242.414 121.62 242.574 121.788C242.742 121.956 242.942 122.088 243.174 122.184C243.414 122.272 243.678 122.316 243.966 122.316C244.382 122.316 244.742 122.22 245.046 122.028C245.35 121.836 245.582 121.572 245.742 121.236L246.45 121.716C246.266 122.132 245.958 122.476 245.526 122.748C245.102 123.012 244.582 123.144 243.966 123.144ZM243.906 117.456C243.642 117.456 243.398 117.504 243.174 117.6C242.95 117.696 242.754 117.828 242.586 117.996C242.426 118.164 242.298 118.364 242.202 118.596C242.114 118.82 242.07 119.068 242.07 119.34V119.424H245.622V119.292C245.622 119.02 245.578 118.772 245.49 118.548C245.41 118.324 245.294 118.132 245.142 117.972C244.998 117.804 244.818 117.676 244.602 117.588C244.394 117.5 244.162 117.456 243.906 117.456ZM250.573 117.624H248.293V116.808H253.813V117.624H251.533V123H250.573V117.624Z" fill="#050505"/>
</svg>
