<svg width="50" height="50" viewBox="0 0 50 50" fill="none" xmlns="http://www.w3.org/2000/svg">
<path d="M41.1458 0H8.85417C3.96415 0 0 4.06579 0 9.0812V40.9188C0 45.9342 3.96415 50 8.85417 50H41.1458C46.0359 50 50 45.9342 50 40.9188V9.0812C50 4.06579 46.0359 0 41.1458 0Z" fill="black"/>
<path d="M11.2588 34.8115V13.3784C11.2588 13.2222 11.3259 13.1436 11.4601 13.1436C11.8175 13.1436 12.1438 13.1384 12.6359 13.1268C13.1275 13.1159 13.6586 13.1047 14.2291 13.0933C14.7994 13.0823 15.4032 13.0711 16.0405 13.0598C16.6777 13.0488 17.3093 13.0432 17.9355 13.043C19.6346 13.043 21.0657 13.2554 22.2288 13.6803C23.278 14.0352 24.2348 14.6196 25.0296 15.3909C25.7033 16.0595 26.224 16.8663 26.5557 17.7556C26.8695 18.6211 27.0285 19.5351 27.0254 20.4557C27.0254 22.2449 26.6117 23.7208 25.7843 24.8832C24.9515 26.0504 23.7808 26.9342 22.4301 27.4156C21.0213 27.9413 19.4559 28.1195 17.7343 28.1195C17.2421 28.1195 16.8955 28.1139 16.6945 28.1027C16.4932 28.0917 16.1914 28.0861 15.7889 28.086V34.778C15.7948 34.819 15.791 34.8608 15.7779 34.9001C15.7648 34.9394 15.7427 34.9751 15.7134 35.0044C15.6841 35.0337 15.6484 35.0558 15.6091 35.0689C15.5698 35.082 15.528 35.0857 15.487 35.0799H11.4936C11.3369 35.0799 11.2588 34.9908 11.2588 34.8115ZM15.7889 17.1686V24.1592C16.0792 24.1817 16.3475 24.1929 16.5938 24.1927H17.7007C18.5151 24.19 19.3242 24.0609 20.099 23.8099C20.7635 23.6125 21.3573 23.2283 21.8096 22.703C22.2456 22.1889 22.4636 21.4733 22.4637 20.5563C22.4814 19.9075 22.3125 19.2673 21.9772 18.7115C21.6248 18.1742 21.1153 17.7584 20.5182 17.5208C19.7385 17.2178 18.9057 17.0752 18.0697 17.1016C17.533 17.1016 17.0578 17.1071 16.6442 17.1183C16.2302 17.1298 15.9451 17.1466 15.7889 17.1686Z" fill="#31A8FF"/>
<path d="M39.9941 22.8883C39.3638 22.5644 38.6924 22.3274 37.9984 22.1839C37.2337 22.0084 36.4518 21.9184 35.6672 21.9155C35.2428 21.904 34.819 21.9549 34.4094 22.0665C34.1487 22.1246 33.9169 22.2731 33.7553 22.4858C33.646 22.6559 33.5878 22.8538 33.5877 23.056C33.5938 23.2521 33.6645 23.4408 33.7889 23.5926C33.9848 23.8218 34.2242 24.0099 34.4932 24.1461C34.9715 24.4036 35.4642 24.6332 35.9691 24.8337C37.0948 25.2105 38.1704 25.723 39.1723 26.3598C39.8548 26.7906 40.4196 27.3841 40.8159 28.0872C41.1491 28.7529 41.316 29.4895 41.3022 30.2339C41.3223 31.2168 41.0414 32.1823 40.4973 33.0011C39.9147 33.8322 39.1055 34.4784 38.166 34.8626C37.1483 35.3097 35.8905 35.5333 34.3926 35.5335C33.4411 35.5431 32.4912 35.4532 31.5584 35.2651C30.8234 35.1304 30.108 34.905 29.4284 34.5943C29.3551 34.5564 29.2941 34.4985 29.2525 34.4272C29.2109 34.3559 29.1905 34.2742 29.1936 34.1918V30.5693C29.1896 30.5338 29.1953 30.4979 29.2101 30.4654C29.2248 30.4329 29.2482 30.4051 29.2776 30.3848C29.3064 30.3685 29.3395 30.3614 29.3724 30.3644C29.4054 30.3674 29.4366 30.3804 29.462 30.4016C30.2645 30.8748 31.1359 31.2199 32.0447 31.4246C32.8458 31.6254 33.6675 31.7323 34.4932 31.7433C35.2757 31.7433 35.8515 31.6426 36.2206 31.4414C36.3873 31.3651 36.5283 31.2421 36.6265 31.0873C36.7248 30.9325 36.776 30.7526 36.7741 30.5693C36.7741 30.279 36.6064 29.9995 36.271 29.7308C35.9356 29.4624 35.2536 29.1382 34.2249 28.758C33.1717 28.3915 32.1731 27.8837 31.2564 27.2487C30.6008 26.7927 30.0609 26.1896 29.68 25.4877C29.3501 24.8268 29.1834 24.0964 29.1937 23.3578C29.1918 22.4704 29.4356 21.5997 29.898 20.8422C30.4253 20.0081 31.1824 19.3442 32.0783 18.9303C33.062 18.4388 34.2918 18.1928 35.7679 18.1924C36.6323 18.1855 37.4959 18.2472 38.3506 18.3769C38.9695 18.4554 39.5745 18.6191 40.1486 18.8632C40.1942 18.8763 40.236 18.8998 40.271 18.9318C40.3059 18.9638 40.3329 19.0035 40.3498 19.0477C40.3725 19.1296 40.3838 19.2143 40.3834 19.2993V22.687C40.3857 22.7264 40.3777 22.7658 40.36 22.8011C40.3424 22.8364 40.3157 22.8665 40.2828 22.8883C40.238 22.9106 40.1886 22.9222 40.1385 22.9222C40.0884 22.9222 40.039 22.9106 39.9941 22.8883Z" fill="#31A8FF"/>
</svg>
