<svg width="50" height="50" viewBox="0 0 50 50" fill="none" xmlns="http://www.w3.org/2000/svg">
<path d="M50 50H0V0H50V50ZM40.292 18.0205C39.1878 18.0205 38.0833 18.2913 37.125 18.833C36.2709 19.2913 35.5214 19.8959 34.8965 20.625C34.8965 20.3542 34.8753 20.1041 34.8545 19.875C34.8337 19.6668 34.7916 19.4377 34.75 19.2295C34.7292 19.042 34.6875 18.8747 34.625 18.708C34.5624 18.5206 34.3957 18.375 34.1875 18.375H30.542C30.5212 18.3542 30.4795 18.3542 30.4795 18.375C30.3753 18.3958 30.3132 18.5003 30.334 18.6045C30.3756 19.0834 30.417 19.5416 30.417 20.0205C30.4378 20.5621 30.4382 21.1039 30.459 21.6455C30.4798 22.1871 30.4795 22.7081 30.4795 23.208V34.833C30.5003 34.9996 30.6459 35.1037 30.8125 35.083H34.917C35.1043 35.083 35.1874 35 35.1875 34.792V24.167C35.4791 23.8337 35.8542 23.583 36.25 23.3955C36.8124 23.1455 37.3959 22.958 38 22.833C38.7291 22.6664 39.5001 22.6042 40.25 22.625C40.4792 22.625 40.584 22.5622 40.584 22.3955V18.25C40.5632 18.1042 40.4378 17.9997 40.292 18.0205ZM18.542 13.0215C17.917 13.0215 17.2913 13.0212 16.6455 13.042C15.9998 13.0628 15.3954 13.0622 14.833 13.083C14.2706 13.1038 13.7499 13.1042 13.25 13.125C12.7708 13.1458 12.4372 13.1455 12.083 13.1455C11.9375 13.1456 11.875 13.2294 11.875 13.375V34.8125C11.875 35 11.9583 35.083 12.125 35.083H16.167C16.3126 35.062 16.4163 34.9376 16.3955 34.792V28.1045C16.7913 28.1045 17.0837 28.1042 17.292 28.125C17.5003 28.1458 17.8334 28.1465 18.333 28.1465C20.0412 28.1465 21.6039 27.9583 23.0205 27.4375C24.3747 26.9375 25.5417 26.0622 26.375 24.8955C27.2082 23.7289 27.625 22.2495 27.625 20.458C27.6249 19.5207 27.458 18.6248 27.1455 17.75C26.8122 16.8543 26.2916 16.0416 25.625 15.375C24.8333 14.6042 23.8746 14.0211 22.833 13.667C21.6665 13.2296 20.2501 13.0215 18.542 13.0215ZM18.6875 17.125C19.5416 17.1042 20.3747 17.2296 21.1455 17.542C21.7497 17.7712 22.2503 18.1878 22.6045 18.7295C22.9377 19.2919 23.1038 19.9383 23.083 20.584C23.0829 21.5004 22.8749 22.2088 22.4375 22.7295C21.9792 23.2502 21.396 23.6465 20.7295 23.834C19.9587 24.084 19.1455 24.208 18.333 24.208H17.2295C16.9796 24.208 16.7085 24.1878 16.417 24.167V17.167C16.5629 17.1462 16.8543 17.1257 17.2705 17.1465C17.6663 17.1257 18.1458 17.125 18.6875 17.125Z" fill="black"/>
</svg>
